PathFileType	4	(X/Y/Z)	 s04c0402.trc
DataRate	CameraRate	NumFrames	NumMarkers	Units	OrigDataRate	OrigDataStartFrame	OrigNumFrames
200	200	4	50	mm	200	1251	2000
Frame#	Time	racr			lacr			c7			jug			rlel			rdr			llel			ldr			s2			lic			ric			lasi			rasi			rpsi			lpsi			rgt			lgt			rth1			rth2			rth3			rth4			rlfc			rmfc			rsh1			rsh2			rsh3			rsh4			rlmal			rmmal			rcal			rtoe			rmt5			lth1			lth2			lth4			lth3			llfc			lmfc			lsh1			lsh2			lsh3			lsh4			llmal			lmmal			lcal			ltoe			lmt5			SBIKE			LBIKE			RBIKE			
		X1	Y1	Z1	X2	Y2	Z2	X3	Y3	Z3	X4	Y4	Z4	X5	Y5	Z5	X6	Y6	Z6	X7	Y7	Z7	X8	Y8	Z8	X9	Y9	Z9	X10	Y10	Z10	X11	Y11	Z11	X12	Y12	Z12	X13	Y13	Z13	X14	Y14	Z14	X15	Y15	Z15	X16	Y16	Z16	X17	Y17	Z17	X18	Y18	Z18	X19	Y19	Z19	X20	Y20	Z20	X21	Y21	Z21	X22	Y22	Z22	X23	Y23	Z23	X24	Y24	Z24	X25	Y25	Z25	X26	Y26	Z26	X27	Y27	Z27	X28	Y28	Z28	X29	Y29	Z29	X30	Y30	Z30	X31	Y31	Z31	X32	Y32	Z32	X33	Y33	Z33	X34	Y34	Z34	X35	Y35	Z35	X36	Y36	Z36	X37	Y37	Z37	X38	Y38	Z38	X39	Y39	Z39	X40	Y40	Z40	X41	Y41	Z41	X42	Y42	Z42	X43	Y43	Z43	X44	Y44	Z44	X45	Y45	Z45	X46	Y46	Z46	X47	Y47	Z47	X48	Y48	Z48	X49	Y49	Z49	X50	Y50	Z50	
1251	6.2550	840.180839	1268.498074	-121.899923	858.389207	1168.611099	-417.729321	872.927511	1312.613443	-287.660328	783.694506	1179.983357	-267.930373	564.221937	1170.294114	32.679083	700.669726	941.648580	-51.910145	623.993435	1137.308918	-619.596633	697.848055	946.623498	-463.981326	264.574284	1293.001060	-225.976950	390.664436	1263.979380	-397.768013	430.185556	1247.892813	-77.182100	423.906355	1213.874584	-363.961371	447.803104	1182.301405	-123.144409	313.301719	1320.433408	-188.167005	301.285740	1332.255257	-258.707376	359.200636	1197.046288	-58.663660	351.869881	1195.504788	-423.015306	373.872042	1027.837778	-39.770794	396.160613	942.931636	-48.867210	376.383589	860.072559	-56.442519	430.321345	945.512458	-63.875552	371.678669	714.027337	-85.989396	345.813039	706.188877	-198.762154	284.302345	620.361418	-62.584219	247.794492	538.869885	-81.847859	176.315921	491.217412	-91.574323	274.534992	522.674178	-104.899345	90.326385	362.220040	-102.321617	116.039485	361.753700	-186.638178	24.473671	381.495069	-144.201335	231.888642	159.475839	-157.811531	168.325718	185.177082	-99.565093	401.200067	1122.622273	-424.687279	477.581008	1080.390114	-424.957557	501.718989	1105.928143	-414.611741	523.013810	1004.617046	-428.777793	619.652978	878.299466	-409.199412	639.571711	846.461620	-296.734811	557.595156	783.609824	-438.083444	512.707368	709.860625	-423.355077	435.727256	664.740679	-426.819592	531.962738	692.252136	-394.267414	325.609110	565.041365	-429.689902	327.665690	569.417464	-339.069514	239.777343	578.820779	-392.371384	499.246898	423.845420	-394.613080	422.095764	428.330039	-459.359554	-177.052810	936.954307	-279.490318	-3.284587	85.853554	-484.595926	-15.018905	80.635266	-84.177997	
1252	6.2600	839.740695	1268.888541	-121.524329	857.763080	1168.321246	-416.941748	872.749406	1312.222031	-287.496980	783.058929	1179.986210	-267.272530	564.029420	1170.385038	32.857832	700.603572	941.834458	-52.240379	624.619479	1137.547593	-620.045822	697.825197	946.515748	-463.823247	265.411604	1295.531776	-228.461971	391.628823	1264.195434	-399.011002	429.603784	1250.366084	-78.518692	424.335923	1214.042629	-364.781055	447.579946	1184.288675	-123.482625	314.990591	1321.585879	-191.709474	302.405277	1333.863161	-261.537226	359.336441	1200.159393	-59.772883	351.877637	1196.223368	-424.007351	377.348734	1030.080709	-41.321853	402.491959	945.780871	-50.571098	385.477564	862.121756	-58.026758	436.304740	949.486401	-65.951578	382.684942	716.179285	-85.813724	357.377269	708.326822	-198.596331	291.622265	625.216807	-62.772376	252.702276	544.871337	-82.324441	179.701883	499.648228	-92.579637	279.001608	528.003826	-105.208954	89.248289	373.099380	-103.698943	116.273622	371.693084	-188.107771	24.731958	394.053182	-147.419651	224.324946	163.895912	-156.568939	161.316781	193.251692	-99.888016	399.982486	1121.544182	-425.665245	475.306847	1077.752309	-425.820166	499.998893	1102.777532	-415.683927	519.172509	1000.880810	-429.058125	613.655538	872.271664	-408.876408	633.298264	840.791797	-296.849644	553.626920	774.645265	-438.305939	509.854622	700.472644	-423.072267	433.831640	653.959649	-426.878825	529.268466	683.505171	-393.592909	325.638952	552.967096	-430.285953	324.664592	557.019065	-338.699394	239.244251	563.455812	-393.026478	505.613030	420.605125	-395.274264	427.986856	420.646571	-459.648661	-176.932300	936.983960	-279.712739	-3.290805	85.830436	-484.601486	-14.992056	80.672991	-84.197562	
1253	6.2650	839.341498	1269.291904	-120.933546	857.191912	1168.708704	-416.225273	873.102964	1312.327679	-286.835444	782.340871	1180.806322	-266.802567	563.843697	1170.412918	33.225511	700.581254	942.009470	-52.480085	625.144538	1137.882097	-620.298157	697.832731	946.408925	-463.462823	266.283312	1297.612451	-230.818216	392.531454	1264.206048	-400.349562	429.109786	1252.619177	-79.753970	424.818056	1214.009257	-365.629010	447.386960	1185.941756	-124.031727	315.755037	1323.298280	-194.100658	303.420973	1335.375243	-263.740833	360.292022	1203.062584	-60.634198	351.787047	1196.611680	-424.914961	381.192463	1032.406905	-43.219159	409.171998	948.962163	-52.347834	395.083007	864.808317	-58.703237	442.576311	953.827567	-68.257044	393.752108	718.447841	-85.701777	369.132440	710.530034	-198.561771	299.201146	630.311987	-63.205629	257.945081	551.155306	-83.017696	183.614923	508.344225	-93.692616	283.854991	533.510370	-105.679022	88.841940	383.521010	-105.561217	117.424182	381.535088	-189.515720	25.976083	406.914018	-150.474108	217.425696	169.002566	-155.223984	154.790342	201.921734	-100.393517	398.757628	1120.132640	-426.773665	472.684236	1074.943988	-427.028604	498.294403	1099.199910	-416.781289	514.628646	996.721538	-429.814325	607.155190	865.637410	-408.769065	626.554412	834.692318	-297.165115	549.139651	765.660933	-438.313136	506.749464	690.856217	-422.715657	431.850615	642.660054	-426.802996	526.279831	674.412162	-392.704751	325.825432	540.351694	-430.900012	321.806995	543.252867	-339.262159	239.153786	547.619180	-393.669497	510.901363	415.531245	-395.434641	433.259721	412.068128	-459.363065	-176.806623	937.044600	-279.971846	-3.267490	85.809128	-484.644574	-14.999735	80.729267	-84.232043	
1254	6.2700	839.072014	1269.760018	-119.966635	856.656296	1169.505469	-415.696834	873.476886	1312.565483	-285.885792	781.656025	1181.765909	-266.021333	563.651837	1170.376948	33.767408	700.931529	942.422342	-52.563220	625.534314	1138.306207	-620.304889	697.831663	946.317827	-462.916763	267.061071	1299.400163	-233.146693	393.353708	1264.026907	-401.642473	428.654734	1254.463689	-81.162141	425.345767	1213.754722	-366.504493	447.245924	1187.342249	-124.794322	316.555290	1324.739052	-196.497739	304.188125	1336.713234	-265.781239	360.577991	1205.537709	-61.913470	351.488575	1196.486434	-425.855828	385.384402	1035.050665	-45.197754	416.064266	952.440386	-54.273262	404.782459	867.782293	-59.549634	448.968695	958.233191	-70.750108	404.532141	720.978420	-85.600257	380.815462	712.792269	-198.680284	306.973180	635.365083	-63.748888	263.428661	557.403100	-83.714071	187.842730	516.939218	-94.909962	289.055541	538.962106	-106.076822	89.830350	394.204364	-107.240426	119.416254	391.228223	-190.947757	28.089937	419.493555	-153.288609	211.010475	174.053120	-153.931504	148.980189	210.298576	-100.844158	397.461479	1118.441423	-427.894570	470.534923	1071.553931	-427.892979	496.565766	1095.327858	-417.969114	510.987998	992.383792	-430.149006	600.298082	858.704848	-408.927479	619.531783	828.237641	-297.733952	544.253678	756.722538	-438.123264	503.700489	681.123045	-422.650737	429.838712	631.045058	-426.722629	523.208338	665.374792	-391.884695	326.076445	527.853111	-431.515293	319.487362	528.774951	-340.690380	239.707411	531.493830	-394.291686	515.605360	409.611537	-395.498198	438.256641	403.367788	-459.498089	-176.660511	937.116993	-280.309424	-3.257494	85.777316	-484.679473	-14.971388	80.762104	-84.268403	
